<svg width="68" height="60" viewBox="0 0 68 60" fill="none" xmlns="http://www.w3.org/2000/svg">
<path d="M37.7136 14.2542C37.7136 20.3063 32.8063 25.2137 26.7541 25.2137C20.7013 25.2137 15.796 20.3063 15.796 14.2542C15.796 8.20161 20.7013 3.29427 26.7541 3.29427C32.8063 3.29427 37.7136 8.20161 37.7136 14.2542ZM12.3494 14.2542C12.3494 22.1136 18.7445 28.5081 26.6015 28.5081C34.4609 28.5081 40.8558 22.1136 40.8558 14.2542C40.8558 6.39261 34.4609 1.14441e-05 26.6015 1.14441e-05C18.7445 1.14441e-05 12.3494 6.39261 12.3494 14.2542Z" fill="#5C6C72"/>
<path d="M67.0921 38.3586L67.1109 38.3001C62.2635 38.3001 59.2964 35.3445 55.7298 32.8551C53.1394 31.0481 50.2337 29.4839 46.0524 29.4839C44.1736 29.4839 42.5798 29.5006 41.2274 29.5404H31.3679C29.926 29.5404 28.7559 30.7097 28.7559 32.1518C28.7559 33.5941 29.926 34.7617 31.3679 34.7617H36.9536H40.6244C42.493 35.0683 43.9184 36.683 43.9184 38.6367C43.9184 40.1184 43.0932 41.393 41.882 42.0604C41.5869 42.1397 40.1732 42.5157 38.2814 43.0159C37.0636 43.3091 35.9065 43.6192 34.8217 43.9314L34.5889 43.9935C30.5232 45.0688 26.1467 46.2216 25.3526 46.4078C24.8262 46.4359 24.3475 46.4132 23.9223 46.308L9.34331 36.8562L6.70082 34.946V34.9496C6.57502 34.865 6.4419 34.7935 6.30463 34.7259C6.11074 34.6265 5.90965 34.5378 5.697 34.4739C5.5301 34.4232 5.35721 34.3873 5.18006 34.3609C4.99419 34.3328 4.80396 34.3141 4.61088 34.3141C4.34912 34.3141 4.09527 34.3403 3.85086 34.3914C1.69659 34.5772 0 36.3634 0 38.5655C0 39.7311 0.483043 40.7726 1.2525 41.5304L1.24814 41.5341L1.26915 41.5492C1.57362 41.8464 1.92 42.1038 2.30331 42.2996L3.30775 43.0311L26.1633 59.5993V59.5957C26.2574 59.6312 26.3513 59.6669 26.4454 59.7046C26.961 59.8832 27.5018 60 28.0775 60C28.4146 60 28.7414 59.9642 29.0567 59.902L29.1716 59.8721C36.9146 57.9013 52.9153 53.8347 60.4022 51.9881C60.588 51.9205 60.7616 51.8565 60.9438 51.7889C62.8544 51.3094 65.4578 50.7399 67.0921 50.7399V49.6454L67.1109 49.6435L67.0921 48.1412V38.6895V38.3586Z" fill="#5C6C72"/>
</svg>
