<svg width="68" height="60" viewBox="0 0 68 60" fill="none" xmlns="http://www.w3.org/2000/svg">
<path d="M17.617 27.8006H9.33396C8.64142 27.8006 8.08002 28.3622 8.08002 29.0546V33.9919C8.08002 34.6843 8.64142 35.246 9.33396 35.246H17.617C18.3095 35.246 18.871 34.6843 18.871 33.9919V29.0546C18.871 28.3622 18.3095 27.8006 17.617 27.8006Z" fill="#5C6C72"/>
<path d="M23.6924 35.246H31.9755C32.6679 35.246 33.2296 34.6843 33.2296 33.9919V29.0546C33.2296 28.3622 32.6679 27.8006 31.9755 27.8006H23.6924C22.9999 27.8006 22.4385 28.3622 22.4385 29.0546V33.9919C22.4385 34.6843 22.9999 35.246 23.6924 35.246Z" fill="#5C6C72"/>
<path d="M38.051 35.246H46.3337C47.0266 35.246 47.5878 34.6843 47.5878 33.9919V29.0546C47.5878 28.3622 47.0266 27.8006 46.3337 27.8006H38.051C37.3582 27.8006 36.7969 28.3622 36.7969 29.0546V33.9919C36.7969 34.6843 37.3582 35.246 38.051 35.246Z" fill="#5C6C72"/>
<path d="M17.617 37.6088H9.33396C8.64142 37.6088 8.08002 38.17 8.08002 38.8628V43.8001C8.08002 44.4925 8.64142 45.0538 9.33396 45.0538H17.617C18.3095 45.0538 18.871 44.4925 18.871 43.8001V38.8628C18.871 38.17 18.3095 37.6088 17.617 37.6088Z" fill="#5C6C72"/>
<path d="M23.6924 45.0538H31.9755C32.6679 45.0538 33.2296 44.4925 33.2296 43.8001V38.8628C33.2296 38.17 32.6679 37.6088 31.9755 37.6088H23.6924C22.9999 37.6088 22.4385 38.17 22.4385 38.8628V43.8001C22.4385 44.4925 22.9999 45.0538 23.6924 45.0538Z" fill="#5C6C72"/>
<path d="M23.6924 54.862H31.9755C32.6679 54.862 33.2296 54.3008 33.2296 53.6079V48.6707C33.2296 47.9782 32.6679 47.417 31.9755 47.417H23.6924C22.9999 47.417 22.4385 47.9782 22.4385 48.6707V53.6079C22.4385 54.3008 22.9999 54.862 23.6924 54.862Z" fill="#5C6C72"/>
<path d="M17.617 47.417H9.33396C8.64142 47.417 8.08002 47.9782 8.08002 48.6707V53.6079C8.08002 54.3008 8.64142 54.862 9.33396 54.862H17.617C18.3095 54.862 18.871 54.3008 18.871 53.6079V48.6707C18.871 47.9782 18.3095 47.417 17.617 47.417Z" fill="#5C6C72"/>
<path d="M52.8433 55.5282C52.8433 56.4366 52.1038 57.1761 51.1961 57.1761H4.47152C3.56336 57.1761 2.82415 56.4366 2.82415 55.5282V25.4867H52.8433V55.5282ZM51.1961 6.34489H49.7576V10.8281C49.7576 12.7702 48.1772 14.3506 46.2346 14.3506C44.2925 14.3506 42.7121 12.7702 42.7121 10.8281V6.34489H37.4902V10.8281C37.4902 12.7702 35.9094 14.3506 33.9672 14.3506C32.0251 14.3506 30.4444 12.7702 30.4444 10.8281V6.34489H25.2229V10.8281C25.2229 12.7702 23.6425 14.3506 21.7 14.3506C19.7579 14.3506 18.1775 12.7702 18.1775 10.8281V6.34489H12.9554V10.8281C12.9554 12.7702 11.375 14.3506 9.43287 14.3506C7.4903 14.3506 5.90999 12.7702 5.90999 10.8281V6.34489H4.47152C2.00217 6.34489 0 8.34652 0 10.8166V55.5608C0 58.0127 1.98736 60 4.43932 60H51.2281C53.68 60 55.6673 58.0127 55.6673 55.5608V10.8166C55.6673 8.34652 53.6653 6.34489 51.1961 6.34489Z" fill="#5C6C72"/>
<path d="M9.43281 13.0444C10.657 13.0444 11.6493 12.0519 11.6493 10.8281V2.21671C11.6493 0.992477 10.657 -2.47955e-05 9.43281 -2.47955e-05C8.20866 -2.47955e-05 7.21625 0.992477 7.21625 2.21671V10.8281C7.21625 12.0519 8.20866 13.0444 9.43281 13.0444Z" fill="#5C6C72"/>
<path d="M21.7 13.0444C22.9242 13.0444 23.9166 12.0519 23.9166 10.8281V2.21671C23.9166 0.992477 22.9242 -2.47955e-05 21.7 -2.47955e-05C20.4759 -2.47955e-05 19.4835 0.992477 19.4835 2.21671V10.8281C19.4835 12.0519 20.4759 13.0444 21.7 13.0444Z" fill="#5C6C72"/>
<path d="M33.9674 13.0444C35.1916 13.0444 36.1837 12.0519 36.1837 10.8281V2.21671C36.1837 0.992477 35.1916 -2.47955e-05 33.9674 -2.47955e-05C32.7432 -2.47955e-05 31.7507 0.992477 31.7507 2.21671V10.8281C31.7507 12.0519 32.7432 13.0444 33.9674 13.0444Z" fill="#5C6C72"/>
<path d="M46.2345 13.0444C47.4587 13.0444 48.4512 12.0519 48.4512 10.8281V2.21671C48.4512 0.992477 47.4587 -2.47955e-05 46.2345 -2.47955e-05C45.0103 -2.47955e-05 44.0178 0.992477 44.0178 2.21671V10.8281C44.0178 12.0519 45.0103 13.0444 46.2345 13.0444Z" fill="#5C6C72"/>
<path d="M47.7124 53.8873L37.3455 43.5202C36.6138 42.7885 36.6138 41.602 37.3455 40.8703L40.0567 38.1591C40.7885 37.4274 41.9746 37.4274 42.7064 38.1591L48.9297 44.3826L61.7307 31.5821C62.4625 30.8504 63.649 30.8504 64.3803 31.5821L67.0915 34.2929C67.8233 35.0246 67.8233 36.2111 67.0915 36.9428L50.147 53.8873C49.4749 54.5592 48.385 54.5592 47.7124 53.8873Z" fill="#D7D3C4"/>
</svg>
