<svg width="28" height="28" viewBox="0 0 28 28" fill="none" xmlns="http://www.w3.org/2000/svg">
<rect width="28" height="28" rx="14" fill="#D7D3C4"/>
<path fill-rule="evenodd" clip-rule="evenodd" d="M5 6.75C5 6.33579 5.33579 6 5.75 6H16.25C16.6642 6 17 6.33579 17 6.75C17 7.16421 16.6642 7.5 16.25 7.5H16V21.25C16 21.6642 15.6642 22 15.25 22H13.75C13.3358 22 13 21.6642 13 21.25V18.75C13 18.3358 12.6642 18 12.25 18H9.75C9.33579 18 9 18.3358 9 18.75V21.25C9 21.6642 8.66421 22 8.25 22H5.75C5.33579 22 5 21.6642 5 21.25C5 20.8358 5.33579 20.5 5.75 20.5H6V7.5H5.75C5.33579 7.5 5 7.16421 5 6.75ZM8 9.5C8 9.22386 8.22386 9 8.5 9H9.5C9.77614 9 10 9.22386 10 9.5V10.5C10 10.7761 9.77614 11 9.5 11H8.5C8.22386 11 8 10.7761 8 10.5V9.5ZM8.5 13C8.22386 13 8 13.2239 8 13.5V14.5C8 14.7761 8.22386 15 8.5 15H9.5C9.77614 15 10 14.7761 10 14.5V13.5C10 13.2239 9.77614 13 9.5 13H8.5ZM12 9.5C12 9.22386 12.2239 9 12.5 9H13.5C13.7761 9 14 9.22386 14 9.5V10.5C14 10.7761 13.7761 11 13.5 11H12.5C12.2239 11 12 10.7761 12 10.5V9.5ZM12.5 13C12.2239 13 12 13.2239 12 13.5V14.5C12 14.7761 12.2239 15 12.5 15H13.5C13.7761 15 14 14.7761 14 14.5V13.5C14 13.2239 13.7761 13 13.5 13H12.5Z" fill="#7A8F8C"/>
<path fill-rule="evenodd" clip-rule="evenodd" d="M18.25 10C17.8358 10 17.5 10.3358 17.5 10.75V21C17.5 21.5523 17.9477 22 18.5 22H22.25C22.6642 22 23 21.6642 23 21.25C23 20.8358 22.6642 20.5 22.25 20.5H22V11.5H22.25C22.6642 11.5 23 11.1642 23 10.75C23 10.3358 22.6642 10 22.25 10H18.25ZM18.75 13.5C18.75 13.2239 18.9739 13 19.25 13H20.25C20.5261 13 20.75 13.2239 20.75 13.5V14.5C20.75 14.7761 20.5261 15 20.25 15H19.25C18.9739 15 18.75 14.7761 18.75 14.5V13.5ZM19.25 17C18.9739 17 18.75 17.2239 18.75 17.5V18.5C18.75 18.7761 18.9739 19 19.25 19H20.25C20.5261 19 20.75 18.7761 20.75 18.5V17.5C20.75 17.2239 20.5261 17 20.25 17H19.25Z" fill="#7A8F8C"/>
</svg>
