<svg width="28" height="28" viewBox="0 0 28 28" fill="none" xmlns="http://www.w3.org/2000/svg">
<rect width="28" height="28" rx="14" fill="#D7D3C4"/>
<path d="M20.25 22.75C21.6307 22.75 22.75 21.6307 22.75 20.25V13.4385L17.0177 16.7901L19.9213 18.3536C20.2252 18.5172 20.3389 18.8962 20.1753 19.2002C20.0116 19.5041 19.6326 19.6178 19.3287 19.4541L14.5926 16.904C14.2227 16.7047 13.7773 16.7047 13.4074 16.904L8.67131 19.4541C8.36739 19.6178 7.98835 19.5041 7.82471 19.2002C7.66106 18.8962 7.77477 18.5172 8.07869 18.3535L10.9823 16.7901L5.25 13.4385V20.25C5.25 21.6307 6.36929 22.75 7.75 22.75L20.25 22.75Z" fill="#7A8F8C"/>
<path d="M5.25 11.9905V11.3699C5.25 10.4502 5.75498 9.60476 6.56475 9.16872L12.8148 5.80334C13.5547 5.40491 14.4453 5.40491 15.1853 5.80334L21.4352 9.16873C22.245 9.60476 22.75 10.4502 22.75 11.3699V11.9905L15.7285 16.0959L15.1853 15.8034C14.4453 15.4049 13.5547 15.4049 12.8148 15.8034L12.2715 16.0959L5.25 11.9905Z" fill="#7A8F8C"/>
</svg>
