<svg width="41" height="60" viewBox="0 0 41 60" fill="none" xmlns="http://www.w3.org/2000/svg">
<path d="M20.3863 36.6537C11.4019 36.6537 4.11885 29.3707 4.11885 20.3864C4.11885 11.4018 11.4019 4.11876 20.3863 4.11876C29.3709 4.11876 36.654 11.4018 36.654 20.3864C36.654 29.3707 29.3709 36.6537 20.3863 36.6537ZM39.1717 15.3524C38.7169 13.6508 38.9065 11.6814 38.0439 10.1915C37.1698 8.68043 35.3611 7.86432 34.1346 6.63775C32.9084 5.41161 32.0919 3.60292 30.5808 2.72843C29.0913 1.86623 27.1219 2.05544 25.4204 1.60107C23.7759 1.16119 22.1694 2.67029e-05 20.3863 2.67029e-05C18.6032 2.67029e-05 16.9966 1.16119 15.3524 1.60107C13.6508 2.05544 11.6812 1.86623 10.1914 2.72843C8.6804 3.60292 7.86411 5.41161 6.63789 6.63775C5.41136 7.86432 3.60267 8.68043 2.7284 10.1915C1.86638 11.6814 2.05554 13.6508 1.60095 15.3524C1.16129 16.9965 0 18.6036 0 20.3864C0 22.1692 1.16129 23.776 1.60095 25.4205C2.05554 27.1221 1.86638 29.0915 2.7284 30.5813C3.60267 32.0923 5.41136 32.9086 6.63789 34.1349C7.86411 35.3611 8.6804 37.1699 10.1914 38.0443C11.6812 38.9062 13.6508 38.7169 15.3524 39.1718C16.9966 39.6113 18.6032 40.7727 20.3863 40.7727C22.1694 40.7727 23.7759 39.6113 25.4204 39.1718C27.1219 38.7169 29.0913 38.9062 30.5808 38.0443C32.0919 37.1699 32.9084 35.3611 34.1346 34.1349C35.3611 32.9086 37.1698 32.0923 38.0439 30.5813C38.9065 29.0915 38.7169 27.1221 39.1717 25.4205C39.6115 23.776 40.7723 22.1692 40.7723 20.3864C40.7723 18.6036 39.6115 16.9965 39.1717 15.3524Z" fill="#5C6C72"/>
<path d="M20.3861 7.30699C18.6198 7.30699 16.907 7.65239 15.2953 8.33431C13.7379 8.99276 12.339 9.93636 11.1373 11.138C9.93565 12.3396 8.99241 13.7383 8.33371 15.2958C7.652 16.9076 7.30635 18.6205 7.30635 20.3867C7.30635 22.153 7.652 23.8659 8.33371 25.4776C8.99241 27.0348 9.93565 28.4338 11.1373 29.6354C12.339 30.8371 13.7379 31.7802 15.2953 32.439C16.907 33.1206 18.6198 33.4663 20.3861 33.4663C22.1522 33.4663 23.8651 33.1206 25.4768 32.439C27.0344 31.7802 28.4334 30.8371 29.6351 29.6354C30.8367 28.4338 31.7799 27.0348 32.4388 25.4776C33.1203 23.8659 33.4661 22.153 33.4661 20.3867C33.4661 18.6205 33.1203 16.9076 32.4388 15.2958C31.7799 13.7383 30.8367 12.3396 29.6351 11.138C28.4334 9.93636 27.0344 8.99276 25.4768 8.33431C23.8651 7.65239 22.1522 7.30699 20.3861 7.30699ZM20.3861 35.1425C18.3945 35.1425 16.4621 34.7521 14.6422 33.9821C12.8849 33.2389 11.307 32.1752 9.95223 30.8205C8.5975 29.4656 7.5337 27.8878 6.79043 26.1304C6.02066 24.3108 5.6304 22.3783 5.6304 20.3867C5.6304 18.3952 6.02066 16.4627 6.79043 14.6426C7.5337 12.8853 8.5975 11.3075 9.95223 9.95294C11.307 8.59801 12.8849 7.53429 14.6422 6.7909C16.4621 6.02121 18.3945 5.63091 20.3861 5.63091C22.3775 5.63091 24.31 6.02121 26.13 6.7909C27.8874 7.53429 29.4652 8.59801 30.8197 9.95294C32.1746 11.3075 33.2384 12.8853 33.9818 14.6426C34.7514 16.4627 35.1417 18.3952 35.1417 20.3867C35.1417 22.3783 34.7514 24.3108 33.9818 26.1304C33.2384 27.8878 32.1746 29.4656 30.8197 30.8205C29.4652 32.1752 27.8874 33.2389 26.13 33.9821C24.31 34.7521 22.3775 35.1425 20.3861 35.1425Z" fill="#5C6C72"/>
<path d="M18.8433 29.6068C18.0702 29.6068 17.3706 29.1783 17.0178 28.4891C16.3718 27.2263 14.5174 24.0137 11.2572 21.4597C10.9369 21.2088 10.8095 20.7814 10.94 20.3957C11.0704 20.0112 11.431 19.7494 11.8373 19.7451C11.8634 19.7447 11.8895 19.7443 11.9156 19.7443C13.2609 19.7443 14.6053 20.1336 15.8037 20.8699C16.6892 21.4147 17.5064 22.1554 18.2103 23.0459C19.1036 21.3607 20.3365 19.502 21.6486 17.8802C22.9888 16.2239 25.042 14.0253 27.2121 12.9584C27.3374 12.8968 27.4707 12.8655 27.6082 12.8655C27.9571 12.8655 28.2765 13.0729 28.4216 13.3941C28.5678 13.7174 28.5123 14.0847 28.2769 14.3523C24.2473 18.9302 22.296 23.7167 20.7873 28.2071C20.5349 28.9583 19.8645 29.5023 19.0788 29.5934C19.0007 29.6021 18.9218 29.6068 18.8433 29.6068Z" fill="#D7D3C4"/>
<path d="M21.4432 41.8831L15.3629 59.4738C15.1509 60.0863 14.3283 60.1896 13.9717 59.6485L10.569 54.4847C10.374 54.1888 10.0046 54.0616 9.66877 54.1735L3.80389 56.1337C3.18908 56.3394 2.60569 55.7502 2.81732 55.1374L8.61102 38.3755C8.90592 38.6425 9.2281 38.8867 9.58471 39.0931C10.7273 39.754 11.986 39.9012 13.2035 40.0434C13.86 40.1201 14.4801 40.1928 15.0396 40.3421C15.5662 40.4829 16.1201 40.7239 16.7069 40.9791C17.7897 41.4504 19.0174 41.984 20.3862 41.984C20.7484 41.984 21.101 41.9466 21.4432 41.8831Z" fill="#5C6C72"/>
<path d="M33.8184 53.8309L27.9298 51.9423C27.5923 51.8347 27.2247 51.9666 27.0333 52.2642L23.6943 57.4698C23.3446 58.0155 22.5204 57.9221 22.3012 57.3118L19.695 50.0605L22.6338 41.558C23.136 41.3834 23.6137 41.1755 24.0657 40.9791C24.6525 40.7239 25.2064 40.4829 25.7329 40.3421C26.2922 40.1928 26.9125 40.12 27.5691 40.0434C28.3893 39.9479 29.2281 39.8491 30.0376 39.5928L34.7926 52.8225C35.0118 53.432 34.4358 54.0288 33.8184 53.8309Z" fill="#5C6C72"/>
</svg>
