<svg width="28" height="28" viewBox="0 0 28 28" fill="none" xmlns="http://www.w3.org/2000/svg">
<rect width="28" height="28" rx="14" fill="#D7D3C4"/>
<path fill-rule="evenodd" clip-rule="evenodd" d="M5.25 7.75C5.25 6.36929 6.36929 5.25 7.75 5.25H8.89302C9.61 5.25 10.235 5.73796 10.4089 6.43354L11.3304 10.1195C11.4828 10.7294 11.2549 11.3713 10.752 11.7485L9.674 12.557C9.56206 12.641 9.53772 12.7639 9.56917 12.8497C10.5154 15.4329 12.5671 17.4846 15.1503 18.4308C15.2361 18.4623 15.359 18.4379 15.443 18.326L16.2515 17.248C16.6287 16.7451 17.2706 16.5172 17.8805 16.6696L21.5665 17.5911C22.262 17.765 22.75 18.39 22.75 19.107V20.25C22.75 21.6307 21.6307 22.75 20.25 22.75H18.375C11.1263 22.75 5.25 16.8737 5.25 9.625V7.75Z" fill="#7A8F8C"/>
</svg>
