<svg width="63" height="60" viewBox="0 0 63 60" fill="none" xmlns="http://www.w3.org/2000/svg">
<path d="M4.41606 19.6677C6.34932 18.6294 7.94959 17.0288 8.98795 15.0957C10.0267 17.0288 11.6278 18.6294 13.5623 19.6677C11.6274 20.7064 10.0269 22.3063 8.98795 24.2401C7.94974 22.3067 6.34932 20.706 4.41606 19.6677ZM10.088 27.7481C10.7647 24.2503 13.5714 21.4453 17.0718 20.7677C17.5985 20.6658 17.9792 20.2046 17.9792 19.6677C17.9792 19.1308 17.5985 18.6696 17.0714 18.5678C13.5714 17.8902 10.7647 15.0852 10.088 11.5877C9.98592 11.0606 9.52455 10.6803 8.98795 10.6803C8.45121 10.6803 7.98983 11.0606 7.88785 11.5877C7.21076 15.0859 4.40559 17.8909 0.907772 18.5678C0.380815 18.6696 0 19.1308 0 19.6677C0 20.2046 0.380669 20.6658 0.907626 20.7677C4.40559 21.4449 7.21091 24.2499 7.88785 27.7481C7.98983 28.2748 8.45121 28.6555 8.98795 28.6555C9.52455 28.6555 9.98592 28.2748 10.088 27.7481Z" fill="#5C6C72"/>
<path d="M56.4335 13.6637C55.8252 12.7095 55.0167 11.8992 54.0636 11.2887C55.0167 10.6781 55.8252 9.86859 56.4335 8.91365C57.0484 9.86351 57.863 10.676 58.8147 11.2887C57.863 11.9014 57.0484 12.7142 56.4335 13.6637ZM61.9717 10.1887C59.7425 9.75729 57.9551 7.97104 57.5241 5.74358C57.4222 5.21644 56.9607 4.83613 56.4241 4.83613C55.8872 4.83613 55.426 5.21644 55.3241 5.74358C54.8927 7.97104 53.1065 9.75766 50.8786 10.1887C50.3519 10.2906 49.9712 10.7521 49.9712 11.2887C49.9712 11.8256 50.3519 12.2868 50.8786 12.389C53.1065 12.8201 54.8927 14.6063 55.3241 16.8341C55.426 17.3609 55.8872 17.7416 56.4241 17.7416C56.9607 17.7416 57.4222 17.3609 57.5241 16.8341C57.9551 14.6067 59.7425 12.8201 61.9717 12.389C62.4989 12.2868 62.8792 11.8256 62.8792 11.2887C62.8792 10.7521 62.4989 10.2906 61.9717 10.1887Z" fill="#5C6C72"/>
<path d="M14.5622 56.0429C14.0782 55.3337 13.467 54.7213 12.7593 54.236C13.467 53.7498 14.0782 53.1378 14.5622 52.4287C15.0513 53.1345 15.6665 53.7483 16.3742 54.236C15.6665 54.7229 15.0513 55.3366 14.5622 56.0429ZM19.4116 53.1356C17.5274 52.7709 16.0171 51.2616 15.6531 49.3793C15.5509 48.8522 15.0897 48.4719 14.5528 48.4719C14.0162 48.4719 13.5547 48.8522 13.4528 49.3793C13.0885 51.2616 11.5788 52.7713 9.6963 53.1356C9.16934 53.2375 8.78882 53.699 8.78882 54.236C8.78882 54.7725 9.16949 55.234 9.69644 55.336C11.5788 55.6999 13.0885 57.2095 13.4528 59.0922C13.5547 59.6193 14.0162 60 14.5528 60C15.0897 60 15.5509 59.6193 15.6531 59.0922C16.0171 57.2098 17.5274 55.7002 19.4116 55.336C19.9384 55.234 20.319 54.7725 20.319 54.236C20.319 53.699 19.9384 53.2375 19.4116 53.1356Z" fill="#5C6C72"/>
<path d="M48.893 38.4632L43.5553 43.8009C43.5549 43.8013 43.5545 43.8016 43.5542 43.802L34.3412 53.0149L32.0742 50.7483L55.8404 26.9825L58.107 29.2492L48.893 38.4632ZM52.348 44.2954L50.8685 45.7749C50.8681 45.7753 50.8681 45.7753 50.8677 45.7757L50.8674 45.776L49.3875 47.2559L47.1205 44.9893L50.0814 42.0288L52.348 44.2954ZM57.0288 23.4169C56.3726 22.7611 55.3082 22.7611 54.652 23.4169L28.509 49.5599C27.8528 50.2165 27.8528 51.2805 28.509 51.9367L33.1528 56.5805C33.4809 56.9086 33.9109 57.0725 34.3412 57.0725C34.7712 57.0725 35.2015 56.9086 35.5296 56.5805L44.7437 47.3661L48.1991 50.8215C48.5272 51.1496 48.9571 51.3135 49.3875 51.3135C49.8175 51.3135 50.2478 51.1496 50.5759 50.8215L52.0562 49.3409L58.6048 55.8899C58.9329 56.218 59.3632 56.3818 59.7932 56.3818C60.2232 56.3818 60.6535 56.218 60.9816 55.8899C61.6382 55.2333 61.6382 54.1693 60.9816 53.5127L54.433 46.9641L55.9133 45.4838C56.2287 45.1684 56.4056 44.7413 56.4056 44.2954C56.4056 43.8495 56.2287 43.422 55.9133 43.107L52.4582 39.6516L61.6723 30.4376C62.3288 29.7814 62.3288 28.7173 61.6723 28.0607L57.0288 23.4169Z" fill="#5C6C72"/>
<path d="M13.6559 32.3296C12.9997 31.6738 11.9352 31.6738 11.279 32.3296C10.6226 32.9862 10.6226 34.0502 11.279 34.7068L23.5885 47.0162C23.9166 47.3443 24.3465 47.5082 24.7769 47.5082C25.2068 47.5082 25.6372 47.3443 25.9653 47.0162C26.6215 46.3596 26.6215 45.2956 25.9653 44.639L13.6559 32.3296Z" fill="#D7D3C4"/>
<path d="M17.997 30.9679L23.0574 36.0282C23.3859 36.356 23.8158 36.5202 24.2458 36.5202C24.6762 36.5202 25.1061 36.356 25.4342 36.0282C26.0908 35.3717 26.0908 34.3076 25.4342 33.651L20.3739 28.5907C19.7177 27.9348 18.6536 27.9348 17.997 28.5907C17.3408 29.2472 17.3408 30.3113 17.997 30.9679Z" fill="#D7D3C4"/>
<path d="M28.4996 36.7167C27.8434 36.0605 26.7793 36.0602 26.1228 36.7164C25.4666 37.3726 25.4666 38.437 26.1228 39.0932L28.2299 41.2003C28.558 41.5284 28.9879 41.6926 29.4183 41.6926C29.8483 41.6926 30.2786 41.5284 30.6067 41.2003C31.2629 40.5441 31.2629 39.48 30.6067 38.8235L28.4996 36.7167Z" fill="#D7D3C4"/>
<path d="M33.0489 33.1855C33.7051 32.529 33.7051 31.4653 33.0489 30.8087L21.8351 19.5945C21.1785 18.9387 20.1144 18.9387 19.4582 19.5945C18.8017 20.2511 18.8017 21.3151 19.4582 21.9717L30.6721 33.1855C31.0002 33.5136 31.4301 33.6779 31.8605 33.6779C32.2905 33.6779 32.7208 33.5136 33.0489 33.1855Z" fill="#D7D3C4"/>
<path d="M39.6196 31.6762C39.9477 32.0043 40.3777 32.1682 40.8081 32.1682C41.238 32.1682 41.6684 32.0043 41.9965 31.6762C42.653 31.0197 42.653 29.9556 41.9965 29.2991L21.0665 8.36909C20.4103 7.71325 19.3462 7.71325 18.6897 8.36909C18.0335 9.02565 18.0335 10.0897 18.6897 10.7463L39.6196 31.6762Z" fill="#D7D3C4"/>
<path d="M31.9205 13.5198C32.249 13.8479 32.6789 14.0121 33.1089 14.0121C33.5393 14.0121 33.9692 13.8479 34.2973 13.5198C34.9539 12.8632 34.9539 11.7992 34.2973 11.1426L30.0142 6.8599C29.358 6.20369 28.294 6.20369 27.6374 6.8599C26.9812 7.51646 26.9812 8.58053 27.6374 9.23709L31.9205 13.5198Z" fill="#D7D3C4"/>
<path d="M40.2865 19.509C39.6303 20.1656 39.6303 21.2293 40.2865 21.8858L44.5695 26.1689C44.8976 26.497 45.328 26.6609 45.758 26.6609C46.1883 26.6609 46.6183 26.497 46.9464 26.1689C47.6029 25.5123 47.6029 24.4483 46.9464 23.7917L42.6633 19.509C42.0071 18.8528 40.9427 18.8528 40.2865 19.509Z" fill="#D7D3C4"/>
<path d="M47.8312 18.9739C48.1597 19.302 48.5896 19.4658 49.0196 19.4658C49.45 19.4658 49.8799 19.302 50.208 18.9739C50.8646 18.3173 50.8646 17.2532 50.208 16.5967L34.1039 0.492136C33.4473 -0.164066 32.3832 -0.164066 31.727 0.492136C31.0705 1.1487 31.0705 2.21276 31.727 2.86933L47.8312 18.9739Z" fill="#D7D3C4"/>
</svg>
