<svg width="28" height="28" viewBox="0 0 28 28" fill="none" xmlns="http://www.w3.org/2000/svg">
<rect width="28" height="28" rx="14" fill="#D7D3C4"/>
<path d="M14.625 14.625C14.625 14.9702 14.3452 15.25 14 15.25C13.6548 15.25 13.375 14.9702 13.375 14.625C13.375 14.2798 13.6548 14 14 14C14.3452 14 14.625 14.2798 14.625 14.625Z" fill="#7A8F8C"/>
<path d="M10.25 17.125C10.5952 17.125 10.875 16.8452 10.875 16.5C10.875 16.1548 10.5952 15.875 10.25 15.875C9.90482 15.875 9.625 16.1548 9.625 16.5C9.625 16.8452 9.90482 17.125 10.25 17.125Z" fill="#7A8F8C"/>
<path d="M10.875 18.375C10.875 18.7202 10.5952 19 10.25 19C9.90482 19 9.625 18.7202 9.625 18.375C9.625 18.0298 9.90482 17.75 10.25 17.75C10.5952 17.75 10.875 18.0298 10.875 18.375Z" fill="#7A8F8C"/>
<path d="M12.125 17.125C12.4702 17.125 12.75 16.8452 12.75 16.5C12.75 16.1548 12.4702 15.875 12.125 15.875C11.7798 15.875 11.5 16.1548 11.5 16.5C11.5 16.8452 11.7798 17.125 12.125 17.125Z" fill="#7A8F8C"/>
<path d="M12.75 18.375C12.75 18.7202 12.4702 19 12.125 19C11.7798 19 11.5 18.7202 11.5 18.375C11.5 18.0298 11.7798 17.75 12.125 17.75C12.4702 17.75 12.75 18.0298 12.75 18.375Z" fill="#7A8F8C"/>
<path d="M14 17.125C14.3452 17.125 14.625 16.8452 14.625 16.5C14.625 16.1548 14.3452 15.875 14 15.875C13.6548 15.875 13.375 16.1548 13.375 16.5C13.375 16.8452 13.6548 17.125 14 17.125Z" fill="#7A8F8C"/>
<path d="M14.625 18.375C14.625 18.7202 14.3452 19 14 19C13.6548 19 13.375 18.7202 13.375 18.375C13.375 18.0298 13.6548 17.75 14 17.75C14.3452 17.75 14.625 18.0298 14.625 18.375Z" fill="#7A8F8C"/>
<path d="M15.875 17.125C16.2202 17.125 16.5 16.8452 16.5 16.5C16.5 16.1548 16.2202 15.875 15.875 15.875C15.5298 15.875 15.25 16.1548 15.25 16.5C15.25 16.8452 15.5298 17.125 15.875 17.125Z" fill="#7A8F8C"/>
<path d="M16.5 18.375C16.5 18.7202 16.2202 19 15.875 19C15.5298 19 15.25 18.7202 15.25 18.375C15.25 18.0298 15.5298 17.75 15.875 17.75C16.2202 17.75 16.5 18.0298 16.5 18.375Z" fill="#7A8F8C"/>
<path d="M17.75 17.125C18.0952 17.125 18.375 16.8452 18.375 16.5C18.375 16.1548 18.0952 15.875 17.75 15.875C17.4048 15.875 17.125 16.1548 17.125 16.5C17.125 16.8452 17.4048 17.125 17.75 17.125Z" fill="#7A8F8C"/>
<path d="M16.5 14.625C16.5 14.9702 16.2202 15.25 15.875 15.25C15.5298 15.25 15.25 14.9702 15.25 14.625C15.25 14.2798 15.5298 14 15.875 14C16.2202 14 16.5 14.2798 16.5 14.625Z" fill="#7A8F8C"/>
<path d="M17.75 15.25C18.0952 15.25 18.375 14.9702 18.375 14.625C18.375 14.2798 18.0952 14 17.75 14C17.4048 14 17.125 14.2798 17.125 14.625C17.125 14.9702 17.4048 15.25 17.75 15.25Z" fill="#7A8F8C"/>
<path fill-rule="evenodd" clip-rule="evenodd" d="M9.625 5.875C9.97018 5.875 10.25 6.15482 10.25 6.5V7.75H17.75V6.5C17.75 6.15482 18.0298 5.875 18.375 5.875C18.7202 5.875 19 6.15482 19 6.5V7.75H19.625C21.0057 7.75 22.125 8.86929 22.125 10.25V19.625C22.125 21.0057 21.0057 22.125 19.625 22.125H8.375C6.99429 22.125 5.875 21.0057 5.875 19.625V10.25C5.875 8.86929 6.99429 7.75 8.375 7.75H9V6.5C9 6.15482 9.27982 5.875 9.625 5.875ZM20.875 13.375C20.875 12.6846 20.3154 12.125 19.625 12.125H8.375C7.68464 12.125 7.125 12.6846 7.125 13.375V19.625C7.125 20.3154 7.68464 20.875 8.375 20.875H19.625C20.3154 20.875 20.875 20.3154 20.875 19.625V13.375Z" fill="#7A8F8C"/>
</svg>
