<svg width="24" height="24" viewBox="0 0 24 24" fill="none" xmlns="http://www.w3.org/2000/svg">
<g clip-path="url(#clip0_233_4049)">
<path d="M8.25 22.6125V17.4375L4.3875 20.2875C5.475 21.3 6.7875 22.0875 8.25 22.6125ZM15.75 22.6125C17.2125 22.0875 18.525 21.3 19.6125 20.2875L15.75 17.4V22.6125ZM1.3875 15.75C1.5 16.125 1.65 16.4625 1.8375 16.8375L3.3 15.75H1.3875ZM20.7 15.75L22.1625 16.8375C22.3125 16.5 22.4625 16.125 22.6125 15.75H20.7Z" fill="#2A5F9E"/>
<path d="M8.81251 14.25H0.975006C1.08751 14.775 1.23751 15.2625 1.38751 15.75H3.30001L1.83751 16.8375C2.13751 17.475 2.47501 18.0375 2.88751 18.6L6.75001 15.75H8.25001V16.5L3.86251 19.725L4.38751 20.25L8.25001 17.4375V22.6125C8.73751 22.8 9.22501 22.9125 9.75001 23.025V14.25H8.81251ZM23.025 14.25H14.25V23.025C14.775 22.9125 15.2625 22.7625 15.75 22.6125V17.4375L19.6125 20.25C20.1375 19.7625 20.5875 19.2375 21.0375 18.675L17.025 15.75H19.575L21.8625 17.4375C21.975 17.25 22.0875 17.025 22.1625 16.8375L20.7 15.75H22.6125C22.7625 15.2625 22.9125 14.775 23.025 14.25Z" fill="white"/>
<path d="M2.8875 18.6C3.1875 19.0125 3.4875 19.3875 3.825 19.7625L8.25 16.5375V15.7875H6.75L2.8875 18.6ZM17.0625 15.75L21.075 18.675C21.225 18.4875 21.3375 18.3 21.4875 18.1125C21.525 18.075 21.525 18.0375 21.5625 18.0375C21.675 17.85 21.825 17.625 21.9375 17.4375L19.575 15.75H17.0625Z" fill="#ED4C5C"/>
<path d="M15.75 1.3877V6.5627L19.6125 3.7127C18.525 2.7002 17.2125 1.9127 15.75 1.3877ZM8.25 1.3877C6.7875 1.9127 5.475 2.7002 4.3875 3.7127L8.25 6.6002V1.3877ZM22.6125 8.2502C22.5 7.8752 22.35 7.5377 22.1625 7.1627L20.7 8.2502H22.6125ZM3.3 8.2502L1.8375 7.1627C1.6875 7.5377 1.5375 7.8752 1.3875 8.2502H3.3Z" fill="#2A5F9E"/>
<path d="M15.1875 9.7501H22.9875C22.875 9.2251 22.725 8.7376 22.575 8.2501H20.6625L22.125 7.1626C21.825 6.5251 21.4875 5.9626 21.075 5.4001L17.25 8.2501H15.75V7.5001L20.1375 4.2751L19.6125 3.7501L15.75 6.5626V1.3876C15.2625 1.2001 14.775 1.0876 14.25 0.975098V9.7501H15.1875ZM0.975006 9.7501H9.75001V0.975098C9.22501 1.0876 8.73751 1.2376 8.25001 1.3876V6.5626L4.38751 3.7501C3.86251 4.2376 3.41251 4.7626 2.96251 5.3251L6.97501 8.2501H4.42501L2.13751 6.5626C2.02501 6.7501 1.91251 6.9751 1.83751 7.1626L3.30001 8.2501H1.38751C1.23751 8.7376 1.08751 9.2251 0.975006 9.7501Z" fill="white"/>
<path d="M21.1125 5.3998C20.8125 4.9873 20.5125 4.6123 20.175 4.2373L15.75 7.4623V8.2123H17.25L21.1125 5.3998ZM6.9375 8.2498L2.9625 5.3248C2.8125 5.5123 2.7 5.6998 2.55 5.8873C2.5125 5.9248 2.5125 5.9623 2.475 5.9623C2.3625 6.1498 2.2125 6.3748 2.1 6.5623L4.3875 8.2498H6.9375Z" fill="#ED4C5C"/>
<path d="M23.025 9.75H14.25V0.975C13.5375 0.825 12.7875 0.75 12 0.75C10.8188 0.75 10.4625 0.825 9.75 0.975V9.75H0.975C0.825 10.4625 0.75 11.2125 0.75 12C0.75 13.1812 0.825 13.5375 0.975 14.25H9.75V23.025C10.4625 23.175 11.2125 23.25 12 23.25C13.1812 23.25 13.5375 23.175 14.25 23.025V14.25H23.025C23.175 13.5375 23.25 12.7875 23.25 12C23.25 10.8188 23.175 10.4625 23.025 9.75Z" fill="#ED4C5C"/>
</g>
<defs>
<clipPath id="clip0_233_4049">
<rect width="24" height="24" fill="white"/>
</clipPath>
</defs>
</svg>
